<svg xmlns="http://www.w3.org/2000/svg" viewBox="0 0 64 64" role="img" aria-label="Confluence">
  <defs>
    <linearGradient id="g1" x1="0" y1="0" x2="1" y2="1">
      <stop offset="0" stop-color="#2684FF"/>
      <stop offset="1" stop-color="#00B8D9"/>
    </linearGradient>
    <linearGradient id="g2" x1="1" y1="0" x2="0" y2="1">
      <stop offset="0" stop-color="#0052CC"/>
      <stop offset="1" stop-color="#2684FF"/>
    </linearGradient>
  </defs>
  <rect x="6" y="6" width="52" height="52" rx="14" fill="#0B1220"/>
  <path d="M44.5 18c-4.1 6.9-8.2 11.6-16.2 13.7-2.4.6-4.4 1.9-6 3.7-2.7 3-3.6 7-3.6 10.1 0 1.2.1 2.3.3 3.2 7.1-1.8 11.7-5.6 15-11.7 3.6-6.8 6.7-9.9 13.7-11.6-.3-3.1-1.3-5.8-3.2-7.4Z" fill="url(#g1)"/>
  <path d="M19.5 46c4.1-6.9 8.2-11.6 16.2-13.7 2.4-.6 4.4-1.9 6-3.7 2.7-3 3.6-7 3.6-10.1 0-1.2-.1-2.3-.3-3.2-7.1 1.8-11.7 5.6-15 11.7-3.6 6.8-6.7 9.9-13.7 11.6.3 3.1 1.3 5.8 3.2 7.4Z" fill="url(#g2)"/>
</svg>
