<svg xmlns="http://www.w3.org/2000/svg" viewBox="0 0 64 64" role="img" aria-label="GitHub">
  <rect x="6" y="6" width="52" height="52" rx="14" fill="#0B1220"/>
  <path fill="#fff" opacity=".92" d="M32 16c-8.8 0-16 7.4-16 16.5 0 7.3 4.6 13.5 10.9 15.7.8.2 1.1-.4 1.1-.9v-3.2c-4.4 1-5.3-2.2-5.3-2.2-.7-1.9-1.8-2.4-1.8-2.4-1.5-1.1.1-1.1.1-1.1 1.6.1 2.5 1.7 2.5 1.7 1.4 2.5 3.8 1.8 4.7 1.4.1-1 .5-1.8.9-2.2-3.5-.4-7.2-1.8-7.2-8.1 0-1.8.6-3.3 1.6-4.5-.2-.4-.7-2 .2-4.2 0 0 1.3-.4 4.4 1.7 1.3-.4 2.7-.6 4.1-.6s2.8.2 4.1.6c3.1-2.1 4.4-1.7 4.4-1.7.9 2.2.4 3.8.2 4.2 1 1.2 1.6 2.7 1.6 4.5 0 6.3-3.7 7.7-7.2 8.1.6.5 1.1 1.6 1.1 3.3V47c0 .5.3 1.1 1.1.9C43.4 46 48 39.8 48 32.5 48 23.4 40.8 16 32 16Z"/>
</svg>
