<svg xmlns="http://www.w3.org/2000/svg" viewBox="0 0 96 96" role="img" aria-label="PostgreSQL">
  <defs>
    <linearGradient id="pg" x1="0" y1="0" x2="1" y2="1">
      <stop offset="0" stop-color="#60a5fa"/>
      <stop offset="1" stop-color="#1d4ed8"/>
    </linearGradient>
  </defs>
  <rect x="0" y="0" width="96" height="96" rx="18" fill="#0f172a"/>
  <path d="M48 18c16 0 28 12 28 28 0 12-7 22-18 26-2 1-4 4-4 6 0 4-3 6-6 6s-6-2-6-6c0-2-2-5-4-6-11-4-18-14-18-26 0-16 12-28 28-28Z" fill="url(#pg)" opacity=".95"/>
  <path d="M36 46c3-5 8-8 12-8s9 3 12 8" fill="none" stroke="#0f172a" stroke-width="7" stroke-linecap="round" opacity=".5"/>
  <path d="M36 46c3-5 8-8 12-8s9 3 12 8" fill="none" stroke="#e2e8f0" stroke-width="4" stroke-linecap="round" opacity=".9"/>
  <circle cx="40" cy="50" r="2.5" fill="#0f172a" opacity=".65"/>
  <circle cx="56" cy="50" r="2.5" fill="#0f172a" opacity=".65"/>
  <path d="M48 54c-3 0-6 2-6 4s3 4 6 4 6-2 6-4-3-4-6-4Z" fill="#0f172a" opacity=".35"/>
  <text x="48" y="84" text-anchor="middle" font-family="system-ui, Segoe UI, Arial" font-size="12" font-weight="700" fill="#e2e8f0">Postgres</text>
</svg>
