<svg xmlns="http://www.w3.org/2000/svg" viewBox="0 0 96 96" role="img" aria-label="Python">
  <defs>
    <linearGradient id="py-a" x1="0" y1="0" x2="1" y2="1">
      <stop offset="0" stop-color="#60a5fa"/>
      <stop offset="1" stop-color="#2563eb"/>
    </linearGradient>
    <linearGradient id="py-b" x1="0" y1="0" x2="1" y2="1">
      <stop offset="0" stop-color="#fcd34d"/>
      <stop offset="1" stop-color="#f59e0b"/>
    </linearGradient>
  </defs>
  <rect x="0" y="0" width="96" height="96" rx="18" fill="#0f172a"/>
  <path d="M49 18c-10 0-18 6-18 15v9h22c6 0 10 4 10 10v16h-16c-10 0-18-6-18-15v-3h-7v5c0 13 10 23 24 23h7c10 0 18-6 18-15V47c0-9-8-15-18-15H40v-3c0-4 3-7 9-7h16v-4Z" fill="url(#py-a)"/>
  <circle cx="43" cy="28" r="3" fill="#e0f2fe"/>
  <path d="M47 78c10 0 18-6 18-15v-9H43c-6 0-10-4-10-10V28h16c10 0 18 6 18 15v3h7v-5c0-13-10-23-24-23h-7c-10 0-18 6-18 15v16c0 9 8 15 18 15h13v3c0 4-3 7-9 7H31v4Z" fill="url(#py-b)"/>
  <circle cx="53" cy="68" r="3" fill="#422006"/>
</svg>
