<svg xmlns="http://www.w3.org/2000/svg" viewBox="0 0 96 96" role="img" aria-label="T4 Templates">
  <defs>
    <linearGradient id="g" x1="0" y1="0" x2="1" y2="1">
      <stop offset="0" stop-color="#8b5cf6"/>
      <stop offset="1" stop-color="#4f46e5"/>
    </linearGradient>
  </defs>
  <rect x="0" y="0" width="96" height="96" rx="18" fill="#0b1020"/>
  <path d="M28 18h28l12 12v48a10 10 0 0 1-10 10H28a10 10 0 0 1-10-10V28a10 10 0 0 1 10-10Z" fill="rgba(255,255,255,0.06)" stroke="rgba(255,255,255,0.10)" stroke-width="2"/>
  <path d="M56 18v14a4 4 0 0 0 4 4h14" fill="none" stroke="rgba(255,255,255,0.18)" stroke-width="2"/>
  <g transform="translate(26,40)">
    <rect x="0" y="0" width="44" height="26" rx="10" fill="url(#g)" opacity="0.95"/>
    <text x="22" y="18" text-anchor="middle" font-family="system-ui, Segoe UI, Arial" font-size="14" font-weight="900" fill="#ffffff">T4</text>
  </g>
  <text x="48" y="86" text-anchor="middle" font-family="system-ui, Segoe UI, Arial" font-size="12" font-weight="700" fill="rgba(255,255,255,0.72)">TEMPLATES</text>
</svg>
